<?xml version="1.0" standalone="no"?>
<!DOCTYPE svg PUBLIC "-//W3C//DTD SVG 20010904//EN"
 "http://www.w3.org/TR/2001/REC-SVG-20010904/DTD/svg10.dtd">
<svg version="1.0" xmlns="http://www.w3.org/2000/svg"
 width="3372.000000pt" height="454.000000pt" viewBox="0 0 3372.000000 454.000000"
 preserveAspectRatio="xMidYMid meet">
<metadata>
Created by potrace 1.15, written by Peter Selinger 2001-2017
</metadata>
<g transform="translate(0.000000,454.000000) scale(0.100000,-0.100000)"
fill="#000000" stroke="none">
<path d="M26348 4147 c-109 -216 -198 -396 -198 -400 0 -4 85 -7 189 -7 l190
0 84 123 c46 67 168 247 271 400 l187 277 -263 0 -263 0 -197 -393z"/>
<path d="M0 2717 l0 -1814 37 -7 c21 -3 134 -6 250 -6 l213 0 2 1094 3 1093
373 -387 c205 -212 408 -421 451 -464 l77 -77 449 463 450 463 3 -1093 2
-1094 244 4 c135 2 247 6 250 9 3 3 5 821 4 1817 l-3 1812 -699 -780 c-384
-429 -701 -780 -705 -779 -3 0 -233 255 -511 566 -278 311 -592 662 -697 780
l-193 214 0 -1814z"/>
<path d="M6140 4223 c-96 -52 -180 -97 -186 -99 -7 -3 -49 38 -95 90 l-83 96
-333 0 c-183 0 -333 -3 -333 -7 0 -5 24 -25 53 -46 127 -91 375 -336 362 -357
-3 -5 -77 -46 -165 -92 -88 -46 -160 -87 -160 -91 0 -4 30 -64 66 -132 l65
-125 47 24 c26 13 112 60 192 103 144 78 146 79 162 59 32 -43 170 -268 166
-272 -2 -2 -47 1 -99 7 -177 21 -379 -2 -544 -62 -242 -88 -459 -302 -577
-571 -133 -299 -154 -741 -53 -1093 52 -181 163 -373 287 -495 218 -215 551
-314 908 -269 255 31 444 122 606 290 163 170 260 374 310 654 25 139 25 465
1 625 -66 429 -206 764 -544 1304 -41 65 -73 119 -71 121 2 2 75 42 163 90 88
48 164 91 168 95 9 8 -119 251 -131 249 -4 -1 -86 -44 -182 -96z m-312 -1298
c102 -24 171 -62 242 -134 36 -36 80 -93 97 -126 67 -128 103 -312 103 -525
-1 -204 -28 -336 -102 -489 -106 -220 -267 -321 -513 -321 -182 0 -298 43
-406 150 -144 142 -209 378 -196 715 14 395 174 656 448 729 71 19 247 20 327
1z"/>
<path d="M28770 4220 c-102 -55 -187 -100 -190 -100 -3 0 -43 43 -88 95 l-82
95 -331 0 c-185 0 -329 -4 -327 -9 2 -5 37 -35 78 -68 101 -80 185 -158 270
-253 l71 -78 -118 -63 c-65 -34 -142 -75 -170 -91 l-53 -29 60 -117 c32 -64
63 -123 68 -130 7 -11 51 9 196 88 103 56 192 100 198 98 10 -4 189 -280 184
-285 -1 -1 -56 3 -123 9 -347 33 -652 -68 -869 -288 -118 -120 -217 -283 -274
-453 -90 -268 -96 -696 -14 -979 117 -404 384 -666 768 -755 130 -29 400 -30
536 0 424 92 704 401 802 885 20 99 23 143 23 348 0 252 -11 349 -62 560 -52
216 -120 391 -245 630 -65 123 -248 437 -304 519 l-23 34 167 92 c94 52 167
98 167 106 0 15 -117 239 -125 239 -3 0 -88 -45 -190 -100z m-246 -1313 c235
-87 351 -288 376 -652 22 -334 -54 -611 -214 -771 -114 -114 -217 -154 -394
-154 -126 0 -187 12 -280 57 -101 48 -179 126 -231 235 -119 246 -132 664 -30
929 74 193 203 320 374 371 93 28 306 20 399 -15z"/>
<path d="M7190 2595 l0 -1715 133 0 133 0 60 87 c32 47 62 90 65 95 3 5 33 -9
66 -31 303 -203 775 -198 1126 10 95 57 245 203 314 307 105 157 178 369 203
592 18 148 8 449 -18 560 -118 503 -469 829 -949 881 -214 23 -414 -17 -578
-116 -32 -19 -59 -35 -61 -35 -2 0 -4 243 -4 540 l0 540 -245 0 -245 0 0
-1715z m1019 354 c267 -42 475 -234 550 -509 46 -168 44 -465 -4 -657 -78
-307 -246 -440 -602 -473 -83 -8 -126 -7 -160 1 -61 15 -195 76 -262 120 l-51
34 0 671 0 672 63 40 c76 48 194 100 250 111 45 9 114 6 216 -10z"/>
<path d="M24792 2873 c3 -1338 4 -1442 21 -1498 67 -231 219 -379 457 -448 85
-25 247 -47 340 -47 l50 0 0 224 0 223 -72 5 c-166 11 -280 118 -308 290 -6
41 -10 525 -10 1376 l0 1312 -240 0 -240 0 2 -1437z"/>
<path d="M3799 4216 c-70 -25 -141 -96 -168 -169 -6 -16 -11 -63 -11 -105 0
-97 27 -160 94 -219 63 -55 129 -77 216 -71 151 11 257 117 268 269 6 85 -16
152 -69 212 -59 68 -125 97 -218 97 -42 -1 -92 -7 -112 -14z"/>
<path d="M21850 2565 l0 -1645 250 0 250 0 0 780 0 780 670 0 670 0 0 -780 0
-780 250 0 250 0 0 1645 0 1645 -250 0 -250 0 0 -645 0 -645 -670 0 -670 0 0
645 0 645 -250 0 -250 0 0 -1645z"/>
<path d="M18301 3879 c-150 -26 -271 -90 -381 -199 -195 -195 -256 -445 -170
-694 25 -75 99 -196 199 -326 l81 -105 -27 -20 c-14 -11 -99 -74 -187 -139
-89 -66 -207 -165 -262 -220 -83 -83 -108 -115 -138 -178 -53 -111 -69 -196
-64 -353 4 -109 9 -143 33 -214 93 -275 386 -515 709 -582 124 -26 330 -26
446 0 208 46 421 160 618 330 45 39 85 71 90 71 5 0 79 -74 166 -165 l158
-165 294 0 c162 0 294 3 294 6 0 3 -137 151 -305 329 -168 178 -305 326 -305
330 0 3 72 87 160 185 88 98 160 183 160 188 0 14 -300 277 -316 277 -8 0 -80
-72 -160 -160 -81 -88 -150 -160 -154 -160 -6 0 -474 495 -508 537 -11 13 0
25 76 86 196 156 315 326 358 510 22 93 14 272 -16 362 -68 205 -245 378 -457
447 -64 21 -102 26 -208 29 -71 1 -154 -1 -184 -7z m259 -440 c106 -26 179
-113 188 -224 4 -58 1 -72 -27 -129 -34 -70 -108 -146 -238 -243 l-76 -57 -39
44 c-224 252 -267 431 -132 550 81 71 195 92 324 59z m79 -1530 c166 -176 301
-324 299 -328 -14 -35 -247 -209 -341 -256 -186 -91 -421 -82 -587 25 -74 48
-155 140 -179 205 -62 165 3 305 217 472 65 51 280 203 287 203 1 0 138 -144
304 -321z"/>
<path d="M15304 3392 c-53 -64 -100 -120 -104 -125 -3 -4 -31 6 -61 22 -174
95 -496 126 -728 71 -259 -62 -483 -242 -596 -481 -61 -130 -78 -213 -78 -389
0 -172 13 -248 63 -377 56 -147 165 -282 299 -372 l64 -44 -54 -22 c-109 -44
-210 -124 -256 -203 -21 -35 -27 -62 -31 -122 -11 -198 95 -340 298 -396 109
-30 347 -26 535 10 399 77 616 0 615 -219 -1 -120 -120 -224 -315 -276 -112
-30 -337 -32 -445 -5 -141 36 -312 115 -448 208 -24 17 -45 28 -46 26 -75
-100 -256 -383 -252 -394 8 -20 115 -88 211 -134 471 -225 1022 -225 1410 -1
117 67 251 203 298 301 89 187 88 421 -4 610 -45 92 -159 203 -259 252 -142
70 -210 83 -425 83 -155 -1 -212 -5 -310 -24 -161 -30 -376 -39 -428 -18 -52
22 -57 44 -19 78 52 47 170 76 405 99 219 22 306 37 397 68 290 101 504 347
565 650 13 64 16 120 13 245 -5 193 -22 269 -88 404 l-46 94 123 92 c68 50
123 94 123 98 0 6 -298 291 -317 302 -7 4 -49 -39 -109 -111z m-453 -445 c107
-52 191 -146 240 -272 20 -52 23 -78 23 -190 1 -145 -13 -207 -67 -308 -40
-76 -130 -159 -201 -186 -277 -103 -546 66 -602 379 -34 190 9 351 129 478 95
100 180 134 327 129 79 -3 105 -8 151 -30z"/>
<path d="M10480 3380 c-473 -59 -822 -418 -916 -945 -25 -139 -25 -469 0 -610
70 -395 271 -690 569 -835 324 -157 765 -144 1072 31 91 51 222 171 294 268
180 242 264 606 233 1003 -20 250 -71 434 -166 601 -147 257 -371 415 -670
472 -100 20 -316 27 -416 15z m352 -430 c196 -60 324 -236 375 -514 22 -117
24 -437 4 -546 -55 -302 -189 -496 -397 -572 -85 -31 -261 -31 -359 -1 -133
42 -226 122 -295 255 -119 228 -146 664 -59 953 70 232 226 396 423 441 80 18
221 11 308 -16z"/>
<path d="M13132 3379 c-88 -13 -214 -61 -288 -110 -35 -22 -97 -76 -138 -120
l-76 -79 0 135 0 135 -245 0 -245 0 0 -1210 0 -1210 245 0 245 0 0 735 c0 633
2 747 16 813 52 252 238 460 439 491 100 15 182 -4 288 -67 33 -19 62 -31 67
-26 4 5 52 112 105 238 70 166 93 231 84 236 -22 14 -222 41 -329 45 -58 2
-133 0 -168 -6z"/>
<path d="M30445 3379 c-215 -29 -455 -121 -592 -225 l-33 -25 106 -210 105
-210 55 50 c125 114 279 170 491 178 204 8 308 -20 401 -110 74 -71 131 -213
132 -324 l0 -41 -52 15 c-84 24 -313 28 -446 9 -290 -43 -505 -148 -682 -333
-97 -101 -149 -184 -187 -298 -25 -73 -27 -93 -28 -240 0 -141 3 -168 23 -229
42 -124 90 -204 178 -291 177 -177 386 -240 679 -204 224 28 396 98 524 216
l57 51 23 -41 c36 -62 110 -136 164 -164 74 -37 188 -62 314 -70 l113 -6 0
135 0 135 -40 27 c-54 35 -96 95 -122 175 -21 64 -22 84 -28 671 -7 576 -8
610 -29 705 -83 374 -293 572 -678 640 -110 19 -355 27 -448 14z m582 -1276
l93 -16 0 -262 0 -263 -88 -84 c-165 -156 -336 -216 -537 -189 -204 28 -300
134 -299 326 2 141 70 265 200 363 165 124 388 169 631 125z"/>
<path d="M33212 3379 c-88 -13 -214 -61 -289 -110 -35 -23 -97 -77 -138 -121
l-75 -80 0 136 0 136 -245 0 -245 0 0 -1210 0 -1210 245 0 245 0 0 735 c0 633
2 747 16 813 52 252 238 460 439 491 100 15 182 -4 288 -67 33 -19 62 -31 67
-26 4 5 52 112 105 238 71 168 94 231 85 236 -23 14 -223 41 -330 45 -58 2
-133 0 -168 -6z"/>
<path d="M3320 3130 l0 -210 165 0 165 0 0 -1000 0 -1000 240 0 240 0 0 1210
0 1210 -405 0 -405 0 0 -210z"/>
<path d="M25950 3130 l0 -210 160 0 160 0 0 -1000 0 -1000 250 0 250 0 0 1210
0 1210 -410 0 -410 0 0 -210z"/>
</g>
</svg>
